<svg x="0" y="0" width="48" height="48" version="1.1" xmlns="http://www.w3.org/2000/svg" xmlns:xlink="http://www.w3.org/1999/xlink"><defs><linearGradient x1="13.6014" y1="6.99029" x2="60.9151" y2="67.52621" gradientUnits="userSpaceOnUse" id="color-1"><stop offset="0.02" stop-color="#000000" stop-opacity="0.54"></stop><stop offset="1" stop-color="#000000" stop-opacity="0"></stop></linearGradient><filter id="dropshadow"><feColorMatrix type="matrix" values="0 0 0 0 .05  0 0 0 0 .15  0 0 0 0 .1  0 0 0 .8 0"></feColorMatrix> <feOffset dx="0" dy="1"></feOffset> <feGaussianBlur stdDeviation="1"></feGaussianBlur> <feComposite in="SourceGraphic"></feComposite></filter></defs><g fill="none" stroke="none" stroke-width="none" stroke-linecap="butt" stroke-linejoin="miter" stroke-miterlimit="none" stroke-dasharray="" stroke-dashoffset="0" font-family="none" font-weight="normal" font-size="none" text-anchor="start" mix-blend-mode="normal"><g id="Capa_1" fill="#000000" stroke="none" stroke-width="1" stroke-miterlimit="4" font-family="'Open Sans', sans-serif" font-size="14"><g></g><g></g><g></g><g></g><g></g><g></g><g></g><g></g><g></g><g></g><g></g><g></g><g></g><g></g><g></g><g></g></g><g id="Capa_1" fill="#000000" stroke="none" stroke-width="1" stroke-miterlimit="4" font-family="'Open Sans', sans-serif" font-size="14"><g></g><g></g><g></g><g></g><g></g><g></g><g></g><g></g><g></g><g></g><g></g><g></g><g></g><g></g><g></g></g><g id="Capa_1" fill="#000000" stroke="none" stroke-width="1" stroke-miterlimit="4" font-family="'Open Sans', sans-serif" font-size="14"><g></g><g></g><g></g><g></g><g></g><g></g><g></g><g></g><g></g><g></g><g></g><g></g><g></g><g></g><g></g></g><g id="Capa_1" fill="#000000" stroke="none" stroke-width="1" stroke-miterlimit="4" font-family="'Open Sans', sans-serif" font-size="14"><g></g><g></g><g></g><g></g><g></g><g></g><g></g><g></g><g></g><g></g><g></g><g></g><g></g><g></g><g></g></g><path d="M4,24c0,-11.04569 8.95431,-20 20,-20c11.04569,0 20,8.95431 20,20c0,11.04569 -8.95431,20 -20,20c-11.04569,0 -20,-8.95431 -20,-20z" fill="#3f51b5" stroke-width="1" stroke-miterlimit="10" font-family="sans-serif" font-size="12" filter="url(#dropshadow)"></path><path d="M15.20782,41.9688l-1.28317,-1.28317c-0.02283,-0.02283 -0.04475,-0.04675 -0.06568,-0.07172l-0.00005,-0.00005c-0.20985,-0.25067 -0.2981,-0.58179 -0.24005,-0.90395l2.40132,-13.46857l-2.08203,-2.08203c-0.20003,-0.20003 -0.3237,-0.47642 -0.3237,-0.78184l0,-6.89958c0,-0.1345 0.10948,-0.24398 0.24453,-0.24398l2.18542,2.18542l0,-0.00001l-2.18541,-2.18541l1.94088,0c0.0676,0 0.1288,0.02742 0.17306,0.07168c0,0 2.21552,2.21552 2.21552,2.21552l0,-2.04322c0,-0.1345 0.10948,-0.24398 0.24453,-0.24398l1.94082,0c0.06769,0 0.12894,0.02743 0.17322,0.07171l2.2155,2.2155c0,0 0,-2.0433 0,-2.0433c0,-0.1345 0.10941,-0.24398 0.2446,-0.24398l0.39979,0l-0.00103,-8.67175l-0.00001,-0.00001c0,-0.31547 0.25557,-0.57179 0.57166,-0.57179c0.15805,0 0.30095,0.06391 0.40436,0.16732l1.83567,1.83567l7.99793,2.04844c0.04353,0.01119 0.08164,0.03357 0.11165,0.06358l9.3618,9.3618c0.20439,1.14678 0.31105,2.32738 0.31105,3.5329c0,11.04569 -8.95431,20 -20,20c-3.1546,0 -6.13861,-0.73035 -8.79218,-2.0312z" fill="url(#color-1)" stroke-width="1" stroke-miterlimit="10" font-family="sans-serif" font-size="12"></path><path d="M34.21536,11.51527l-9.66623,2.47573l0.00117,2.24291l0.39765,0c0.13505,0 0.24453,0.10941 0.24453,0.24398l0,2.64718l2.14405,0l0,-2.64718c0,-0.1345 0.10941,-0.24398 0.2446,-0.24398l1.94082,0c0.13519,0 0.24453,0.10941 0.24453,0.24398l0,2.64718l2.14419,0l0,-2.64718c0,-0.1345 0.10934,-0.24398 0.24453,-0.24398l1.94082,0c0.13512,0 0.2446,0.10941 0.2446,0.24398l0,6.89957c0,0.61081 -0.49472,1.10553 -1.10567,1.10553l-1.61355,0l2.7146,15.22691c0.05812,0.32209 -0.03013,0.65321 -0.23998,0.90395c-0.20999,0.25074 -0.52043,0.39586 -0.84756,0.39586l-18.54192,0c-0.32712,0 -0.63756,-0.14519 -0.84762,-0.39586c-0.20986,-0.25067 -0.2981,-0.58179 -0.24005,-0.90395l2.71481,-15.22691l-1.61369,0c-0.61088,0 -1.10553,-0.49472 -1.10553,-1.10553l0,-6.89957c0,-0.1345 0.10948,-0.24398 0.24453,-0.24398l1.94088,0c0.13505,0 0.24453,0.10941 0.24453,0.24398l0,2.64718l2.14405,0l0,-2.64718c0,-0.1345 0.10948,-0.24398 0.24453,-0.24398l1.94082,0c0.13519,0 0.24467,0.10941 0.24467,0.24398l0,2.64711l2.14405,0l0,-2.64718c0,-0.1345 0.10941,-0.24398 0.2446,-0.24398l0.39979,0l-0.00103,-8.67176c0,-0.31547 0.25556,-0.57179 0.57166,-0.57179c0.31616,0 0.57172,0.25577 0.57172,0.57179l0,1.00391l9.66623,2.47573c0.10837,0.02785 0.18311,0.12506 0.18311,0.23674c0,0.11168 -0.07473,0.20889 -0.18324,0.23681z M23.97864,27.37816c-1.45499,0 -2.63319,1.17861 -2.63319,2.63257l0,4.78682l5.26534,0l0,-4.78682c0,-1.45396 -1.17819,-2.63263 -2.63215,-2.63257z" fill="#ffffff" stroke="none" stroke-width="0" stroke-miterlimit="4" font-family="'Open Sans', sans-serif" font-size="14"></path></g></svg>